# xmcd CD database file
#
# Track frame offsets:
#	150
#	23321
#	45311
#	63595
#	73190
#	108998
#	135426
#	155216
#	181349
#
# Disc length: 2886 seconds
#
# Revision: 0
# Processed by: cddbd v1.5.2PL0 Copyright (c) Steve Scherf et al.
# Submitted via: CDex 1.51
#
DISCID=720b4409
DTITLE=Corea, Chick - Works (ECM)
DYEAR=1985
DGENRE=Jazz
TTITLE0=Addendum
TTITLE1=Where are you now
TTITLE2=Noon Song
TTITLE3=Children's Song
TTITLE4=Brasilia
TTITLE5=Slippery when wet
TTITLE6=Duet Improvisation
TTITLE7=A new place
TTITLE8=La Fiesta
EXTD=YEAR: 1985
EXTT0=
EXTT1=
EXTT2=
EXTT3=
EXTT4=
EXTT5=
EXTT6=
EXTT7=
EXTT8=
PLAYORDER=
